<svg xmlns="http://www.w3.org/2000/svg" viewBox="0 0 96 144" role="img" aria-label="Akshay mini pixel mascot">
  <defs>
    <filter id="pixelGlow" x="-40%" y="-40%" width="180%" height="180%">
      <feDropShadow dx="0" dy="6" stdDeviation="4" flood-color="#000000" flood-opacity=".45"/>
      <feDropShadow dx="0" dy="0" stdDeviation="3" flood-color="#3d8bff" flood-opacity=".35"/>
    </filter>
  </defs>
  <g shape-rendering="crispEdges" filter="url(#pixelGlow)">
    <rect x="39" y="8" width="22" height="6" fill="#221510"/>
    <rect x="34" y="14" width="32" height="8" fill="#2b1a12"/>
    <rect x="31" y="22" width="38" height="19" fill="#b96c37"/>
    <rect x="28" y="28" width="44" height="7" fill="#111827"/>
    <rect x="31" y="27" width="18" height="9" fill="#05070d"/>
    <rect x="53" y="27" width="18" height="9" fill="#05070d"/>
    <rect x="48" y="31" width="6" height="3" fill="#20242d"/>
    <rect x="38" y="39" width="24" height="5" fill="#8f4e29"/>
    <rect x="36" y="44" width="28" height="7" fill="#181818"/>

    <rect x="29" y="51" width="40" height="48" rx="3" fill="#111111"/>
    <rect x="32" y="55" width="34" height="39" fill="#191919"/>
    <rect x="47" y="52" width="4" height="46" fill="#060606"/>
    <rect x="48" y="58" width="3" height="3" fill="#ff5959"/>
    <rect x="48" y="68" width="3" height="3" fill="#ff5959"/>
    <rect x="48" y="79" width="3" height="3" fill="#ff5959"/>
    <rect x="57" y="63" width="15" height="18" fill="#0a0a0a"/>
    <rect x="59" y="65" width="11" height="14" fill="#151515"/>

    <rect x="21" y="56" width="9" height="36" fill="#171717"/>
    <rect x="67" y="55" width="9" height="35" fill="#171717"/>
    <rect x="20" y="89" width="11" height="24" fill="#b96c37"/>
    <rect x="68" y="88" width="11" height="20" fill="#b96c37"/>
    <rect x="18" y="102" width="13" height="5" fill="#f4f5f7"/>
    <rect x="67" y="104" width="13" height="7" fill="#0e1117"/>
    <rect x="69" y="106" width="9" height="3" fill="#f8fafc"/>

    <rect x="30" y="96" width="36" height="34" fill="#f7f3e8"/>
    <rect x="31" y="96" width="8" height="34" fill="#fffaf0"/>
    <rect x="39" y="96" width="4" height="34" fill="#eab308"/>
    <rect x="63" y="97" width="5" height="33" fill="#efe8dc"/>
    <rect x="30" y="128" width="37" height="5" fill="#eab308"/>
    <rect x="29" y="133" width="18" height="6" fill="#111827"/>
    <rect x="51" y="133" width="20" height="6" fill="#111827"/>
    <rect x="27" y="138" width="22" height="4" fill="#f8fafc"/>
    <rect x="50" y="138" width="24" height="4" fill="#f8fafc"/>
    <rect x="32" y="134" width="10" height="2" fill="#f8fafc"/>
    <rect x="55" y="134" width="11" height="2" fill="#f8fafc"/>
  </g>
</svg>
